<svg width="128" height="128" viewBox="0 0 128 128" fill="none" xmlns="http://www.w3.org/2000/svg">
<g filter="url(#filter0_d)">
<g filter="url(#filter1_i)">
<path d="M30 26.0353L33.8637 25L39.0401 44.3185L35.1764 45.3538L30 26.0353Z" fill="#CCCCCC"/>
<path d="M94.1764 25L98.0401 26.0353L92.8637 45.3538L89 44.3185L94.1764 25Z" fill="#CCCCCC"/>
</g>
<path d="M37 21C37 24.3137 34.3137 27 31 27C27.6863 27 25 24.3137 25 21C25 17.6863 27.6863 15 31 15C34.3137 15 37 17.6863 37 21Z" fill="white"/>
<path d="M103 21C103 24.3137 100.314 27 97 27C93.6863 27 91 24.3137 91 21C91 17.6863 93.6863 15 97 15C100.314 15 103 17.6863 103 21Z" fill="white"/>
<path d="M30 44H98C101.314 44 104 46.6863 104 50V94C104 97.3137 101.314 100 98 100H54L46.866 112.5C46.4811 113.167 45.5189 113.167 45.134 112.5L38 100H30C26.6863 100 24 97.3137 24 94V50C24 46.6863 26.6863 44 30 44Z" fill="white"/>
<g filter="url(#filter2_i)">
<rect x="34" y="52" width="60" height="40" rx="5" fill="#CCCCCC"/>
</g>
<g filter="url(#filter3_d)">
<path d="M45 62C45 60.8954 45.8954 60 47 60H51C52.1046 60 53 60.8954 53 62V82C53 83.1046 52.1046 84 51 84H47C45.8954 84 45 83.1046 45 82V62Z" fill="#BF0000"/>
<path d="M75 62C75 60.8954 75.8954 60 77 60H81C82.1046 60 83 60.8954 83 62V82C83 83.1046 82.1046 84 81 84H77C75.8954 84 75 83.1046 75 82V62Z" fill="#BF0000"/>
</g>
</g>
<defs>
<filter id="filter0_d" x="20" y="15" width="88" height="106" filterUnits="userSpaceOnUse" color-interpolation-filters="sRGB">
<feFlood flood-opacity="0" result="BackgroundImageFix"/>
<feColorMatrix in="SourceAlpha" type="matrix" values="0 0 0 0 0 0 0 0 0 0 0 0 0 0 0 0 0 0 127 0" result="hardAlpha"/>
<feOffset dy="4"/>
<feGaussianBlur stdDeviation="2"/>
<feComposite in2="hardAlpha" operator="out"/>
<feColorMatrix type="matrix" values="0 0 0 0 0 0 0 0 0 0 0 0 0 0 0 0 0 0 0.25 0"/>
<feBlend mode="normal" in2="BackgroundImageFix" result="effect1_dropShadow"/>
<feBlend mode="normal" in="SourceGraphic" in2="effect1_dropShadow" result="shape"/>
</filter>
<filter id="filter1_i" x="30" y="25" width="68.0401" height="22.3538" filterUnits="userSpaceOnUse" color-interpolation-filters="sRGB">
<feFlood flood-opacity="0" result="BackgroundImageFix"/>
<feBlend mode="normal" in="SourceGraphic" in2="BackgroundImageFix" result="shape"/>
<feColorMatrix in="SourceAlpha" type="matrix" values="0 0 0 0 0 0 0 0 0 0 0 0 0 0 0 0 0 0 127 0" result="hardAlpha"/>
<feOffset dy="2"/>
<feGaussianBlur stdDeviation="1"/>
<feComposite in2="hardAlpha" operator="arithmetic" k2="-1" k3="1"/>
<feColorMatrix type="matrix" values="0 0 0 0 0 0 0 0 0 0 0 0 0 0 0 0 0 0 0.25 0"/>
<feBlend mode="normal" in2="shape" result="effect1_innerShadow"/>
</filter>
<filter id="filter2_i" x="34" y="52" width="60" height="40" filterUnits="userSpaceOnUse" color-interpolation-filters="sRGB">
<feFlood flood-opacity="0" result="BackgroundImageFix"/>
<feBlend mode="normal" in="SourceGraphic" in2="BackgroundImageFix" result="shape"/>
<feColorMatrix in="SourceAlpha" type="matrix" values="0 0 0 0 0 0 0 0 0 0 0 0 0 0 0 0 0 0 127 0" result="hardAlpha"/>
<feOffset/>
<feGaussianBlur stdDeviation="2"/>
<feComposite in2="hardAlpha" operator="arithmetic" k2="-1" k3="1"/>
<feColorMatrix type="matrix" values="0 0 0 0 0 0 0 0 0 0 0 0 0 0 0 0 0 0 0.54 0"/>
<feBlend mode="normal" in2="shape" result="effect1_innerShadow"/>
</filter>
<filter id="filter3_d" x="41" y="56" width="46" height="32" filterUnits="userSpaceOnUse" color-interpolation-filters="sRGB">
<feFlood flood-opacity="0" result="BackgroundImageFix"/>
<feColorMatrix in="SourceAlpha" type="matrix" values="0 0 0 0 0 0 0 0 0 0 0 0 0 0 0 0 0 0 127 0" result="hardAlpha"/>
<feOffset/>
<feGaussianBlur stdDeviation="2"/>
<feComposite in2="hardAlpha" operator="out"/>
<feColorMatrix type="matrix" values="0 0 0 0 1 0 0 0 0 0 0 0 0 0 0 0 0 0 0.75 0"/>
<feBlend mode="normal" in2="BackgroundImageFix" result="effect1_dropShadow"/>
<feBlend mode="normal" in="SourceGraphic" in2="effect1_dropShadow" result="shape"/>
</filter>
</defs>
</svg>
